<?xml version="1.0" encoding="UTF-8"?>
<svg width="368px" height="113px" viewBox="0 0 368 113" version="1.1" xmlns="http://www.w3.org/2000/svg" xmlns:xlink="http://www.w3.org/1999/xlink">
    <!-- Generator: Sketch 48.2 (47327) - http://www.bohemiancoding.com/sketch -->
    <title>Combined-Shape</title>
    <desc>Created with Sketch.</desc>
    <defs>
        <linearGradient x1="45.4604605%" y1="91.2043425%" x2="54.9443338%" y2="0%" id="linearGradient-1">
            <stop stop-color="#FBAA24" offset="0%"></stop>
            <stop stop-color="#EC2C91" offset="100%"></stop>
        </linearGradient>
    </defs>
    <g id="Page-1" stroke="none" stroke-width="1" fill="none" fill-rule="evenodd">
        <path d="M27.334974,0.7425031 L32.005937,0.7425031 L32.005937,79.439765 L64.662516,79.439765 L64.662516,0.9563763 L97.156434,0.9563763 L97.156434,112.59011 L0,112.59011 L0,0.7425031 L4.670963,0.7425031 L4.670963,107.899023 L92.487479,107.899023 L92.487479,5.6474628 L69.335487,5.6474628 L69.335487,84.130852 L27.334974,84.130852 L27.334974,0.7425031 Z M316.237857,0.7425031 L320.906812,0.7425031 L320.906812,112.59011 L223.750378,112.59011 L223.750378,0.9563763 L256.244296,0.9563763 L256.244296,79.439765 L288.902883,79.439765 L288.902883,0.7425031 L293.573846,0.7425031 L293.573846,84.130852 L251.571325,84.130852 L251.571325,5.6474628 L228.421341,5.6474628 L228.421341,107.899023 L316.237857,107.899023 L316.237857,0.7425031 Z M363.329037,0.7425031 L368,0.7425031 L368,112.59011 L335.188794,112.59011 L335.188794,0.7425031 L339.861765,0.7425031 L339.861765,107.899023 L363.329037,107.899023 L363.329037,0.7425031 Z M107.655056,0 L142.727442,0 L159.495517,27.129612 L174.400026,0.7061851 L209.468396,0.7061851 L145.040834,112.59011 L139.669026,112.59011 L201.425745,5.3972715 L176.986527,5.3972715 L116.830306,112.551774 L111.319935,112.551774 L142.978461,56.42015 L107.655056,0 Z M180.097155,65.199039 L182.707754,61.03053 L214.944628,112.630463 L179.876259,112.630463 L165.293054,88.83808 L168.060288,84.421397 L182.460751,107.935341 L206.903985,107.935341 L180.097155,65.199039 Z M115.697708,4.6910864 L145.448489,52.03575 L156.87287,31.778327 L140.138934,4.6910864 L115.697708,4.6910864 Z" id="Combined-Shape" fill="url(#linearGradient-1)" fill-rule="nonzero"></path>
    </g>
</svg>